
<global>
amp_veltrack=0
ampeg_release=0.25
</global>

<group>
group_label=PP
lpc_hicc1=42
lpc_locc1=0

<region>
hivel=127
key=A#3
loop_end=246576
loop_mode=loop_continuous
loop_start=80153
loop_xfade=20165
lovel=0
lpc=myJBQgUJC8PCfxhD5wicwrPjr0Ac7pBBkhsNQelGsMGtVb5AQWr5P0twGcF8jyVBVT3WwN8eQEEviETBFmBxQbueVcHiUcPAU7RXQYfhVcDXUC2/BzM1P9KiEsDfFrg/
lpc_rms=-29.70
sample=Cor_sustain_PP_A#3.opus
</region>

<region>
hivel=127
key=A#4
loop_end=251900
loop_mode=loop_continuous
loop_start=81884
loop_xfade=20601
lovel=0
lpc=7553QohcO8M9O1pDvPrpwp7ti0Gcr8g/58UBQkQCBsJGzNHA4AbaQfR+ucHbFXJBipxJwXwTKUGa+LTAMEByQdaS6MGHgblB4DlawOuUfMEbdThBlOzGQTfII8KW8YdB
lpc_rms=-26.27
sample=Cor_sustain_PP_A#4.opus
</region>

<region>
hivel=127
key=A3
loop_end=254756
loop_mode=loop_continuous
loop_start=82813
loop_xfade=20834
lovel=0
lpc=Up9dQlg2IcPePzBDXbicwtOoNsEgB45BijrmQYTf8MFZ21/BEHIJQlxLvcGkp4lAWHP0v9TtBkG9dr+//6rtv4AcNEA+8qTAWoA7P3JzK0BdGQjBv6oYQQqMIb8a/Om/
lpc_rms=-29.50
sample=Cor_sustain_PP_A3.opus
</region>

<region>
hivel=127
key=A4
loop_end=269291
loop_mode=loop_continuous
loop_start=87537
loop_xfade=22023
lovel=0
lpc=Kq6CQkI0L8OTQCdDLc2Owo63o0EJpqfBWxASQpNye8EBPaDBRTWtQU6MVsHOcJBASBqKQBg3asCckw6/Znl8QSnz0MHVkyVBHRr/PwiseEBFagDBV089QZGOacHrud1A
lpc_rms=-29.75
sample=Cor_sustain_PP_A4.opus
</region>

<region>
hivel=127
key=B3
loop_end=246639
loop_mode=loop_continuous
loop_start=80174
loop_xfade=20171
lovel=0
lpc=PKliQu1zIsPH/ihDj+N5wno+hMGO4YtBrgpBQT2yQ8G5KLrAo6WLQPDziMBJM/xAEOpaQHhB1MBczs/A1XuIQfCXY8H9LbC/VNEqQbXso8B0UCLAJG2dP6BDnUCrNnrA
lpc_rms=-29.37
sample=Cor_sustain_PP_B3.opus
</region>

<region>
hivel=127
key=B4
loop_end=267272
loop_mode=loop_continuous
loop_start=86881
loop_xfade=21858
lovel=0
lpc=D2apQgRcaMNpPm9D6EDBwrf4ysGyduxBnxcNQumSCMJnlHDBzCwtQsxxV8LzouhBBTKnQBI+/j80bjPCPpGKQj0TBsJzkxXBVImBQY3KiMAcLYnACCOZwAk+GUGb4gTA
lpc_rms=-26.29
offset=14128
sample=Cor_sustain_PP_B4.opus
</region>

<region>
hivel=127
key=C#4
loop_end=255349
loop_mode=loop_continuous
loop_start=83005
loop_xfade=20883
lovel=0
lpc=y13jQQp6msIjaptC2Tbvwd2POsH6Q7FBKrmOwJGtlMC25JfAa3K5QKYp7746GL7AaA8FQYuacz7CN6vAnfbaQDg/L8HA2+JAq2N3Pwc75b4YHdDAWfsfQVq078Co8S5A
lpc_rms=-33.30
sample=Cor_sustain_PP_C#4.opus
</region>

<region>
hivel=127
key=C#5
loop_end=232582
loop_mode=loop_continuous
loop_start=75605
loop_xfade=19021
lovel=0
lpc=Zh4MQiZ0rcIV45NCMhFZwUrX08H2GeBBJhuJv0YWA8ENKATB8vpDQSkVZcDm6Lw/Zh5YwPXJlT+DqKJAbriMwGW4ncBPNKBAfx4NQfFuScHm5TBA0NZDQd/pp8EIBzNB
lpc_rms=-36.62
sample=Cor_sustain_PP_C#5.opus
</region>

<region>
hivel=127
key=C4
loop_end=259490
loop_mode=loop_continuous
loop_start=84351
loop_xfade=21222
lovel=0
lpc=9i4uQsI36MKXo+VCJZw1wnyofsGu9wRCHZRFwfgQ4EAGcnPBHUHgQMJ5uD+RDBbBkms8QcrCq78O4VHAxnAQQW20OcETYZ+/srwOQYpiMcG67EJBMPcSwSXHAUF/LorA
lpc_rms=-32.03
sample=Cor_sustain_PP_C4.opus
</region>

<region>
hivel=127
key=C5
loop_end=253878
loop_mode=loop_continuous
loop_start=82527
loop_xfade=20763
lovel=0
lpc=OervQfu0jMIyWWFCW60Sweq3eMHZeBNBJhpgQCU0gkAuqirBv8b2QAEb98CiE1xATUx8QKlH8cC/0z1APSq5QD/ZKsDCVx3AWhc/QBw0iMCmGi8/dYFxQK4lcMANk+U/
lpc_rms=-38.49
sample=Cor_sustain_PP_C5.opus
</region>

<region>
hivel=127
key=D#4
loop_end=243269
loop_mode=loop_continuous
loop_start=79078
loop_xfade=19895
lovel=0
lpc=sHMBQgepp8IYf5NC8kkxwR3V9cGcHNlB13xKwF8aSMAWX5u/lzBNQEN9xcDEu2xAJk7Vv3zA4j+fpkA/9aAuP0NgfMB/fug/O/qpP05EhD+Re8rAntHZQBvmAsB8NuC+
lpc_rms=-34.36
sample=Cor_sustain_PP_D#4.opus
</region>

<region>
hivel=127
key=D#5
loop_end=246479
loop_mode=loop_continuous
loop_start=80122
loop_xfade=20157
lovel=0
lpc=z7kXQjBPnsLJQ2RCRgBtvxhT78FzXm5BSuAaQXLaWb7p8CDBpUguQeKFwcDE4BPAJ4XxvCBJGsAYffdAK08pv1VyAECrsu2/7gOzP13KPMAcljnAZdHVQMgZ6sCmeNRA
lpc_rms=-34.39
sample=Cor_sustain_PP_D#5.opus
</region>

<region>
hivel=127
key=D4
loop_end=256011
loop_mode=loop_continuous
loop_start=83221
loop_xfade=20937
lovel=0
lpc=OPMLQgNoyMKlsNxCInNTwiG4/cB5NANCbzmGwTzRGUCyQjbBvnWCQW4nS8Gb7ztAo5AjQXII6cAnWNy/yHZ0QOvdxMDwdSVAI3z/PyJjyD/ip63AZijDQH08b8AFUzc/
lpc_rms=-29.10
sample=Cor_sustain_PP_D4.opus
</region>

<region>
hivel=127
key=D5
loop_end=243460
loop_mode=loop_continuous
loop_start=79141
loop_xfade=19911
lovel=0
lpc=z8qQQoMXFcNalMlCCdelwJheA8LkTsZA+FG4Qd4JDkFN6g7C+1+VQXXy7EDnsC3BOkS2P2enhcEd5/lBOK+hwBJ5M8HJVG9A40XAQDEpyMBHN6e+SMiSwJ/tvkApu1FA
lpc_rms=-29.86
sample=Cor_sustain_PP_D5.opus
</region>

<region>
hivel=127
key=E3
loop_end=258147
loop_mode=loop_continuous
loop_start=83915
loop_xfade=21112
lovel=0
lpc=ZD+2QgUbc8Nv629DAOfTwr6g0UBZAOxAaJbVQftV8cHJfG1BK1fmwE/mnkC+KjDBBgWnQHmo2EBlNZvBvq8RQt5FxcFv9tfAm8+DQa8SJ8AELxTBmAjIQO+cksCeqYZA
lpc_rms=-26.91
sample=Cor_sustain_PP_E3.opus
</region>

<region>
hivel=127
key=E4
loop_end=246255
loop_mode=loop_continuous
loop_start=80049
loop_xfade=20139
lovel=0
lpc=q3EqQovA6cI7hNxCfTfhwfS79sFkFBtCC7kwwQMspr/nSzrBHX0WQcyO0D7NA/LA447kQNiHr0BRas/AcvZGQM1M9sDE/i1APZq+QLFanMBK1H0+b47xP8nqOL+Jzoy+
lpc_rms=-31.75
sample=Cor_sustain_PP_E4.opus
</region>

<region>
hivel=127
key=E5
loop_end=245692
loop_mode=loop_continuous
loop_start=79866
loop_xfade=20093
lovel=0
lpc=jzN2QrriAcMCN9NCCiiwwZRFLsK0jUBC/ekJwSm1PD/mTw/BAYp5QezWo8FhyiZBW4YOQeyhqsEU5KNBdWy1v354WcDqBTfAykk6Qc65JcF5GIe/WTMNQbEdOMGNQzNB
lpc_rms=-28.40
sample=Cor_sustain_PP_E5.opus
</region>

<region>
hivel=127
key=F#3
loop_end=246483
loop_mode=loop_continuous
loop_start=80123
loop_xfade=20158
lovel=0
lpc=iseLQvvCPcNNYTtDjjyewiyXMUAu/Ke//ao1QrH0OMKN+CdBKJoIQV2QNsHomf6/MGh4P7qiRkGlS/PA2jS7P7+w1EDtVkfBiawjPwDCxEC3dazAwzI9QDDprkB0GqHA
lpc_rms=-28.77
sample=Cor_sustain_PP_F#3.opus
</region>

<region>
hivel=127
key=F#4
loop_end=242353
loop_mode=loop_continuous
loop_start=78781
loop_xfade=19820
lovel=0
lpc=BQsXQrH03cJufAFD4yCdwmxI1EGc4CbBYQGbQfIxZ8Fj7hjAV/6uQBjnqr8DFFc/VvqGwHPrDD7jaC5BfxQIwQoQtL9/3/U/yXcOQP1XQcBCId4/dT28v12CqD97G6e+
lpc_rms=-32.49
sample=Cor_sustain_PP_F#4.opus
</region>

<region>
hivel=127
key=F#5
loop_end=241275
loop_mode=loop_continuous
loop_start=78430
loop_xfade=19732
lovel=0
lpc=8C6vQjyhKcMO1RNDtEk5wvsxuMFKKAlBJ7MXQpz6n8EmShPBUEzeQUBtBMHl/7PBHigOQv/pEMLOtwdCQUDYvm0fBsHMAUxBtygpQK+N0cGJvQFC/lqmwWi1LUEHuB5B
lpc_rms=-24.64
sample=Cor_sustain_PP_F#5.opus
</region>

<region>
hivel=127
key=F3
loop_end=257142
loop_mode=loop_continuous
loop_start=83588
loop_xfade=21030
lovel=0
lpc=/RmTQjD/QsNTXjFDXlFswuDk/z9T2kXBqTDeQXJ9EMFe5p4+O5suwQm/NkFdfmLBG+BpQVb4JMEMcWrAwYSeQXQNXcFz/VM/RKUrwBjAV0EIJJDBTO9HQfnVmMDe0Xs/
lpc_rms=-29.54
sample=Cor_sustain_PP_F3.opus
</region>

<region>
hivel=127
key=F4
loop_end=243425
loop_mode=loop_continuous
loop_start=79129
loop_xfade=19908
lovel=0
lpc=Xf5AQu6HBcN/BPdCfAybwbQXQsICcxVCYNpVQaCt7sFoPGK/NHwfQUEHaEBPkojAIsuUQM8Xp8AwREU/NaOXQCwTQMH1zeZAIg22QA//lcBZDRvATZXgQKtZF8H6QJNA
lpc_rms=-29.07
sample=Cor_sustain_PP_F4.opus
</region>

<region>
hivel=127
key=F5
loop_end=233468
loop_mode=loop_continuous
loop_start=75893
loop_xfade=19093
lovel=0
lpc=ifNRQg+AzcKPwY1CGKvZQD03TMJprxZCx0QOQaQUk8GCqSi9ybpSQT+c7sCYgpfA2xIfQQLFgMBcJoRAPaqwQAkwiMHC7G9BvlyjQPaicMEaCC5Bd3iaQKzOj8EDEoBB
lpc_rms=-30.82
sample=Cor_sustain_PP_F5.opus
</region>

<region>
hivel=127
key=G#3
loop_end=251041
loop_mode=loop_continuous
loop_start=81605
loop_xfade=20531
lovel=0
lpc=2Yl0QhUgIcMVURNDs4VAwmC6NMEDzVFB/Z6QQUtco8E05QHBAV6FQfnnJ8FNZYBA++uDwLfQQkF+xE7Badf9QIttvMAC+CxAJdRHQN624cAWdGJAq7NzP/brtz5NTjW/
lpc_rms=-30.70
sample=Cor_sustain_PP_G#3.opus
</region>

<region>
hivel=127
key=G#4
loop_end=244943
loop_mode=loop_continuous
loop_start=79623
loop_xfade=20032
lovel=0
lpc=RQ+9QiaVT8NeOyxDp0SnwhES10FoH7HBcLvtQaJSncAUJt6/6YMOQRQGS8EyGahAuPMqwVVCCkHaLENAJojtwLm1h0A+moRBuRyGwdIGBcHs/yNBrfU3QNXAsMHKEJZB
lpc_rms=-28.90
sample=Cor_sustain_PP_G#4.opus
</region>

<region>
hivel=127
key=G3
loop_end=254959
loop_mode=loop_continuous
loop_start=82878
loop_xfade=20851
lovel=0
lpc=UkmQQs4HUMPBcWZD3T37wlyj4kHYnKdApW44QYCmn8FXH7NA7EsDQZvcfsFKJjlBTYanwNAVH0Fw5kLBkrDyQKxEiMDJIE+/0scTQJ0bD79n8v3ALPLVQfUv2MGz6Q1B
lpc_rms=-27.53
sample=Cor_sustain_PP_G3.opus
</region>

<region>
hivel=127
key=G4
loop_end=249935
loop_mode=loop_continuous
loop_start=81245
loop_xfade=20440
lovel=0
lpc=97mxQrPLcMO47HVDI3j5wl9d7EGIcwHBUawjQrgyPMI/3JNBFfQ8QereBsISrJVBP/IrQVy8kMFstwpB5GQ1QRUOhsEKmAVBMi3Cv64NSsA6ety/JdsNwPIk+UCUAQHA
lpc_rms=-26.33
sample=Cor_sustain_PP_G4.opus
</region>

<region>
hikey=D6
hivel=127
lokey=G5
loop_end=251330
loop_mode=loop_continuous
loop_start=81699
loop_xfade=20554
lovel=0
lpc=ZlJFQ/DgzcNA8qxDowLCwsk10cKZC9ZClIMSQuOYdMJqBzhBcJH0QTCoFcLVzhTCT/2sQuvRLMK1zF9BgxepQRwKJsErwXnBIqJywTBwB0IRA7jBarUuQWBnVEI1cDjC
lpc_rms=-21.21
pitch_keycenter=G5
sample=Cor_sustain_PP_G5.opus
</region>
</group>

<group>
group_label=MF
lpc_hicc1=84
lpc_locc1=43

<region>
hivel=127
key=A#3
loop_end=253914
loop_mode=loop_continuous
loop_start=82539
loop_xfade=20766
lovel=0
lpc=ACOtQdf0WsLN+ldCbUHSwedEQkDdgXhAdohjvLFv+j5/rLS/K4ULQA8vUMBO52c/Ze8OQBPStMCM63FAq8QcQC5IxcDwiLZAsXjmvp040D0uVUjAvM8OQCx60b+gEoQ/
lpc_rms=-29.60
sample=Cor_sustain_MF_A#3.opus
</region>

<region>
hivel=127
key=A#4
loop_end=260234
loop_mode=loop_continuous
loop_start=84593
loop_xfade=21282
lovel=0
lpc=+3WTQqrWR8PGS0xDQuDNwhJiEkLclyXALkqBwXABqkFH+BjCkXxRQj3IFsIqcoNBgC9lP5z/fMEARq5Ba1K/wRRblkEVC5DBOUXHQWGZG8FaFee/KAYmwV4gV0HnL5fA
lpc_rms=-17.21
sample=Cor_sustain_MF_A#4.opus
</region>

<region>
hivel=127
key=A3
loop_end=265662
loop_mode=loop_continuous
loop_start=86358
loop_xfade=21726
lovel=0
lpc=RDQOQl71s8LflMJCZeaHwip+20GjyfQ/F2V6QI194sAxrD3AxuCeQTRnH8LUZBhC7aqlwTyhF0CZJBRBks7Bvzrg08D0JlVAni6PQL7kC8HzkK1AseEZQKAdy8D4vW9A
lpc_rms=-25.39
sample=Cor_sustain_MF_A3.opus
</region>

<region>
hivel=127
key=A4
loop_end=277452
loop_mode=loop_continuous
loop_start=90190
loop_xfade=22691
lovel=0
lpc=WPgQQzHTxMOiLNxDnXKGw2ubWUJl1LxBVIeBQilUsMJoYddBJQgaQgWVvsLtCplCg8cWwvWYw0GNOMPA2zHmQQgucsJbA0ZCC3mlwQDQOsFa+rFBoMSXwZDBp0HInCvB
lpc_rms=-17.72
offset=12061
sample=Cor_sustain_MF_A4.opus
</region>

<region>
hivel=127
key=B3
loop_end=265183
loop_mode=loop_continuous
loop_start=86202
loop_xfade=21687
lovel=0
lpc=BcQQQtr5wsJSN9RCkCBzwnwCAkENWMVBOSO8wUIJDkGGJ78/rb+wv6tuNsE6trtBgfqUwUj5X77bQH9Bcl+HwVBGCkGBLRLA8JYWwD+pbUDq64vA7M6WQPM42T5FMRTA
lpc_rms=-26.59
sample=Cor_sustain_MF_B3.opus
</region>

<region>
hivel=127
key=B4
loop_end=274065
loop_mode=loop_continuous
loop_start=89089
loop_xfade=22414
lovel=0
lpc=+79wQnWqIMP5vTRDgd3gwnyiukFu+8xB62CKwVuo4MCZx7xBUzmDwVu0SsF2SMlBNO18wCw9bMG6MyhB/849QTFa5cFvyZhBTqncvyC95cDtwcFAPUg3wJnPEUBFF7g9
lpc_rms=-22.34
offset=14003
sample=Cor_sustain_MF_B4.opus
</region>

<region>
hivel=127
key=C#5
loop_end=252149
loop_mode=loop_continuous
loop_start=81965
loop_xfade=20621
lovel=0
lpc=IC0SQriiyMJmRNxCnvw/wpI3isHFSvlB4PelwKdv7cDoF9m+2p6xQK5oxj5UlIXAFip2v+g3gz9YmtdAsY0LwSTxIUA791ZADCc4v7XTTsAc2sY/oPrUQJhbTMHiW89A
lpc_rms=-28.82
sample=Cor_sustain_MF_C#5.opus
</region>

<region>
hivel=127
key=C4
loop_end=259443
loop_mode=loop_continuous
loop_start=84336
loop_xfade=21218
lovel=0
lpc=bo4jQiHs48IfeQJDW7afwl4mO0Fy0gdCptXbwYNmhUCYrbFAt0IEwZcvCz+xYCJBzBJCwZgUCkFpOJnAbf06QN/DmD8TkgbBNTwZQY3qgMAGs2fA3jHPQDUVAsBCDHu/
lpc_rms=-22.10
sample=Cor_sustain_MF_C4.opus
</region>

<region>
hivel=127
key=C5
loop_end=267894
loop_mode=loop_continuous
loop_start=87083
loop_xfade=21909
lovel=0
lpc=O/A3QlKY8MKqKQhD2fSZwoyTkkBiQXxBqtcIQSDFA8F7BavBx4ItQsRaBsIxFvW/2FoCQneFCsIJRW9BKLjaQCiAPsGXQxVBo9cBwV9GE0G0dlrBLaBhQbwWIsFh9YtA
lpc_rms=-23.46
sample=Cor_sustain_MF_C5.opus
</region>

<region>
hivel=127
key=D#4
loop_end=264901
loop_mode=loop_continuous
loop_start=86110
loop_xfade=21664
lovel=0
lpc=BTy1Qbn2ZcIFQGxCoyb+wW7NjkCCzfFAqik/wDRQ07/viFRAVzIYwKh4wL9XrWY+zaLAQLZDqsASXoa/9B+TQIBYVMCaYTm/GopVP89ljT/yODu/ZJOEv9mwc0BNBCzA
lpc_rms=-26.58
sample=Cor_sustain_MF_D#4.opus
</region>

<region>
hivel=127
key=D#5
loop_end=261296
loop_mode=loop_continuous
loop_start=84938
loop_xfade=21369
lovel=0
lpc=wzjoQVLpjMJgZYtC4OLywQN5nsAKdzZBBAGAQE8JE8EAogJASAeyQJps28AxYwZAH02KQHHAv8A3M6U/Fp6FQP0vWcAU8CtA8u9HvwAkIr6ExGS/WGSeQNcBJcElq/NA
lpc_rms=-26.60
sample=Cor_sustain_MF_D#5.opus
</region>

<region>
hikey=D4
hivel=127
lokey=C#4
loop_end=254314
loop_mode=loop_continuous
loop_start=82669
loop_xfade=20798
lovel=0
lpc=WAHVQensiMLMKItChkEWwhmzvkDsZ2dBc85DwWB6U0DJZps/MjSbwHirSb5XmxVA7AbBQEbpvsBGyKg8WnUHQGhI/r98oGs+79z7v4cmc0C/6PS+SiS/v4QulT/lbVa/
lpc_rms=-26.04
pitch_keycenter=D4
sample=Cor_sustain_MF_D4.opus
</region>

<region>
hivel=127
key=D5
loop_end=247695
loop_mode=loop_continuous
loop_start=80517
loop_xfade=20257
lovel=0
lpc=o8IaQiGSzMJAZ8ZCO03WwS0T+MElBRRCk5wpwPFw28EoYbNBfPxrQIaqqMG5H4hBMJJvPjhoQ8FJ+xFB9IC5QFOaBcEGH/DAIQmKQVSdQMG4o1BA3KXGQN5iL8GrWLlA
lpc_rms=-28.03
sample=Cor_sustain_MF_D5.opus
</region>

<region>
hivel=127
key=E3
loop_end=249065
loop_mode=loop_continuous
loop_start=80963
loop_xfade=20369
lovel=0
lpc=q1OVQgW+WMOciXdDdRMWw378WkKFV03B4Ai3QfSgRMKTFllC+8rgwaKUCsGp68lBG8KWwY8GO0E4hIfBtsi+Qa3LnsHOoUVBRohCwbuTiUGFSqDB1lN5QX8Y/sCoTSdA
lpc_rms=-22.16
sample=Cor_sustain_MF_E3.opus
</region>

<region>
hivel=127
key=E4
loop_end=261424
loop_mode=loop_continuous
loop_start=84980
loop_xfade=21380
lovel=0
lpc=/7cYQj4py8K4qNFCJM9dwpRsvkBb1N1BnDqswRZ0SkD3DHpA1g+HwXzzkUGEnfXAufNNQOdy20C3sh3B7UxzP8aQLECxHPPAp1EcQah1S8CmKC6/UNQfQE+PDsBWd0U+
lpc_rms=-22.78
sample=Cor_sustain_MF_E4.opus
</region>

<region>
hivel=127
key=E5
loop_end=262953
loop_mode=loop_continuous
loop_start=85477
loop_xfade=21505
lovel=0
lpc=4kXgQQI5kMJQPKxCHpduwiwhhkGaX2ZBDKaawePRO0Gbq52+CrUBwVFoMkHX5AvBB+i6QH+BMcAL3Ai/D9GtP3JklEC7DgXBii/qQB1ALr/yiKPABg+QQM9tPcAFt1RA
lpc_rms=-23.58
sample=Cor_sustain_MF_E5.opus
</region>

<region>
hivel=127
key=F#3
loop_end=253914
loop_mode=loop_continuous
loop_start=82539
loop_xfade=20766
lovel=0
lpc=1jE4Ql4I78L72ARDt3+2woZzvkHykZ5BSdZEv5Zq88EM6R9CnqRjwbPkJ8HutJZAlF8DQd0DusHbYoNBs0SKQISWHMFImYRAZO4rQS8MIMEORqDAp2A3QUxYQcGUz79A
lpc_rms=-25.63
sample=Cor_sustain_MF_F#3.opus
</region>

<region>
hivel=127
key=F#4
loop_end=271166
loop_mode=loop_continuous
loop_start=88147
loop_xfade=22176
lovel=0
lpc=06EGQphJxcKeeP9CMuzTwvqLd0K/hvjB+rX8QfjhBsLfib9BhS4zwVTEoEDdwwvB5TkNQeZ/J8AmuIjAucwvQeABMsG4LP1AWmQLweojDEFt1X7AApHnv5sTS0DLjYO/
lpc_rms=-27.29
sample=Cor_sustain_MF_F#4.opus
</region>

<region>
hivel=127
key=F#5
loop_end=251326
loop_mode=loop_continuous
loop_start=81697
loop_xfade=20554
lovel=0
lpc=cJ4LQhFCmcL+Xq1C4qhawrC9XEFQGx5BjR1kwf+ulEHLAFrBAMX1QMc4xT41vr/AwAQlQeGmi8Fh8sdBO596wb1V30BR1HJAy4epwLv0fz+01S5AKuMNv1FITL+315JA
lpc_rms=-28.25
sample=Cor_sustain_MF_F#5.opus
</region>

<region>
hivel=127
key=F3
loop_end=251345
loop_mode=loop_continuous
loop_start=81704
loop_xfade=20555
lovel=0
lpc=uBtoQqOqF8NiuCJDC8jkwgV9S0I6Ueg/QV3/vx+q/MA2X4tA6xiLQVN49ME3PwhBzL1ZQYl11MEefKxBwau9v5RgpsCKAda/lnAdQcRO7cB5S7HARypJQda128BQA10/
lpc_rms=-22.53
sample=Cor_sustain_MF_F3.opus
</region>

<region>
hivel=127
key=F4
loop_end=264070
loop_mode=loop_continuous
loop_start=85840
loop_xfade=21596
lovel=0
lpc=yzXPQUvJkMJz4JhC2DgMwoi6fz/rCx1BjZWNwIAQucCVBR1B9UYWwZn+zEC+hAm/6S+Mv7ROXr9H203ArJgwQZQzVcHzmOtAy9XDPuCLOcBQsFE/n7yAQEWF0sDBCEpA
lpc_rms=-25.87
sample=Cor_sustain_MF_F4.opus
</region>

<region>
hivel=127
key=F5
loop_end=254194
loop_mode=loop_continuous
loop_start=82630
loop_xfade=20788
lovel=0
lpc=hIR/QbKaE8KjMxRCDkhiwVWLzMCGShNBP4qZPVmj2MBJgtxAV+uKv7YaKsByBNI/1ueEQMOLt8DDgNk/I+yCQBqavcDjMblAYkqEwLWq7T/XX6K+nNlAQK9ilMAcr2BA
lpc_rms=-28.71
sample=Cor_sustain_MF_F5.opus
</region>

<region>
hivel=127
key=G#3
loop_end=254388
loop_mode=loop_continuous
loop_start=82693
loop_xfade=20804
lovel=0
lpc=OWtHQvIXAMPE9wtDVs3JwvmGN0KWdam/nSBqP08N2cD+4URBrTtVwcAivMDSnk1BGR0ywcyAXEG1uhO/zQ+/wFTzWj4Igre+Q+sMwLwoEEC0+74/uSMtwNRUqkATP0/A
lpc_rms=-19.74
sample=Cor_sustain_MF_G#3.opus
</region>

<region>
hivel=127
key=G#4
loop_end=269131
loop_mode=loop_continuous
loop_start=87485
loop_xfade=22010
lovel=0
lpc=IeaUQmaCOMOOOjZDUAr7wrJWi0KxHIHBZw8xQc3dD8D9+UPBogdqQVq90MGxep1BDLePwarc8UGOgU/BEMDnwKq2/kBh6ynB78gsQU1zYsAWArrAc/2aQao2vcFUGiJB
lpc_rms=-17.32
sample=Cor_sustain_MF_G#4.opus
</region>

<region>
hivel=127
key=G3
loop_end=265474
loop_mode=loop_continuous
loop_start=86297
loop_xfade=21711
lovel=0
lpc=uKbEQVHUeMK5s4NCoHguwlYih0Er5B1ADjV7P+bZNMExuVFBcifBwI7OocBmCyZBMDmywOTEesAa2RVB6kmnwKGQYL+TmytAQdYGwBpvLz/sFyY/gjEqvyX+576QDWY/
lpc_rms=-28.24
sample=Cor_sustain_MF_G3.opus
</region>

<region>
hivel=127
key=G4
loop_end=262467
loop_mode=loop_continuous
loop_start=85319
loop_xfade=21465
lovel=0
lpc=HOyMQumnR8MtJmhDAQkSw0u3R0Is6LbAOgd3QWtUI8J7tzhCgFvCwcdMosD+yqBBuEWqweRjnEFQnCDB3Wr1QPy/osHC+LVBvEMCwSA4r8CS7xJB6p7Bv/567MDUF5lA
lpc_rms=-22.25
sample=Cor_sustain_MF_G4.opus
</region>

<region>
hikey=D6
hivel=127
lokey=G5
loop_end=244926
loop_mode=loop_continuous
loop_start=79617
loop_xfade=20030
lovel=0
lpc=vVj1QqfCZsM3fD1DBAaDwmDi0sHFH1JCuqygwSSb/kBRdqtBQterwS8K40BhPPLBzPSGQjYeZcKZnCZCh80jwcekn0BTDEC/RQEWQHcHQsHGX4O/Ezk2Qn6r1MGrYeZA
lpc_rms=-19.53
pitch_keycenter=G5
sample=Cor_sustain_MF_G5.opus
</region>
</group>

<group>
group_label=FF
lpc_hicc1=127
lpc_locc1=85

<region>
hivel=127
key=A#3
loop_end=271409
loop_mode=loop_continuous
loop_start=88226
loop_xfade=22196
lovel=0
lpc=FU4KQnEGwcKFEtpCUvuKwqi40UGJdwJAaIMxwai1aEE73T/BTzuSQJ0ca8AWYsU/QJIRQJfH2b8YtK0/X++uP2b4b8ATADm/2s0KQCTl9D9v2WbA+LvlPxGmoj9Gpq6/
lpc_rms=-20.24
sample=Cor_sustain_FF_A#3.opus
</region>

<region>
hivel=127
key=A#4
loop_end=271482
loop_mode=loop_continuous
loop_start=88249
loop_xfade=22202
lovel=0
lpc=XotJQhs9GsME/zlD+TLgwgHv80HyOjJBKqxFwUhCCD88FSHBxyvgQbmY+8HCrZ1BqcJnQDxevMGPuZ5BZAoHQX8o9sG+erZBagUSwR++N0ADqvxAQGuLwMBnBsFmBLZA
lpc_rms=-14.29
sample=Cor_sustain_FF_A#4.opus
</region>

<region>
hivel=127
key=A3
loop_end=271419
loop_mode=loop_continuous
loop_start=88229
loop_xfade=22197
lovel=0
lpc=j3IbQq4e0cLvbuNCGZOGwpKkUkHA5XNB1nhxwKKu98DWh4dAp8KYQFEwO8FPCshATj4KwLkZmEDtgMXAkTMZQesUwsBZ3izATzhJQJ3szj5xMci/E5Gdvo9GO0D7I8e/
lpc_rms=-20.05
sample=Cor_sustain_FF_A3.opus
</region>

<region>
hivel=127
key=A4
loop_end=283744
loop_mode=loop_continuous
loop_start=92236
loop_xfade=23205
lovel=0
lpc=hLdFQjtyA8Nu2AZDfN6TwtJEfEEWdiZBQTILQc9VjMExE/682IiKQcpbyMGXgF9Bs/6xwAOhA0HG+zLBeRSqQZwasMEGv61A+ivvP8yBV0At+qHA9vjbQCKgGMHLFJ9A
lpc_rms=-18.15
offset=14087
sample=Cor_sustain_FF_A4.opus
</region>

<region>
hivel=127
key=B3
loop_end=269450
loop_mode=loop_continuous
loop_start=87589
loop_xfade=22036
lovel=0
lpc=WE8LQkpawcIENMtCz8k/whAd2UA6Z8pAyEMPwekyLkE9VQDB3mdUv8udgkCOCT8/mnKvwIZP5UBm9orAK4OQP5fr+TyjxhjA/uyVQO9sn8CPkkdAD0RnwHJ8s0CyBTbA
lpc_rms=-19.01
sample=Cor_sustain_FF_B3.opus
</region>

<region>
hivel=127
key=B4
loop_end=280374
loop_mode=loop_continuous
loop_start=91140
loop_xfade=22930
lovel=0
lpc=aHygQrwLZsMs+YJD/P0Fw4Ks/8AsS3hCHFgLwjD8/r+zNHpB48kSwcVOk8FNoyVCOevTwUXsXr9MIRFBmcHEv+xIkMAL92fA7RZvQTeCYcFfkihAK8UsQfraX8Fa37pA
lpc_rms=-14.16
offset=16781
sample=Cor_sustain_FF_B4.opus
</region>

<region>
hivel=127
key=C#4
loop_end=269298
loop_mode=loop_continuous
loop_start=87540
loop_xfade=22024
lovel=0
lpc=lfquQSxcacIGWlxCAJR5wUpSCcEKLwNB6FnUv1c8xD3ImKO/O09UPy12S79HRHC//fKVQC6GL8DzpyPA2P6nQOOZvsCQxg1AFmCEQLtxeMAYaru/TrKCQNwuVMCpvqU/
lpc_rms=-21.92
sample=Cor_sustain_FF_C#4.opus
</region>

<region>
hivel=127
key=C#5
loop_end=271198
loop_mode=loop_continuous
loop_start=88157
loop_xfade=22179
lovel=0
lpc=VwMpQkkT38LzqN9CwLI0wjn/TcG3OdBBhVTlv1RVcsFaHlJBpN0dwP1/N8Hq64lBYSwxwT8jk8ADwk1Btlzhv2yuLcENfx5BTlAlQCmigMCgprXAT2xUQcAgicFlUxpB
lpc_rms=-19.90
sample=Cor_sustain_FF_C#5.opus
</region>

<region>
hivel=127
key=C4
loop_end=270992
loop_mode=loop_continuous
loop_start=88090
loop_xfade=22162
lovel=0
lpc=as8SQmyJ0cLM2+VCtOlHwmOjc8EKGRBCc4anwUEIqL/ix1lBYpdQwf9ZrEAJMbRAnzN0wcpBTkEp9uS/qTMdwPjfM0AX8pLAHwcDvl306kDwMATBMmNJQBlQ7T8nGr2/
lpc_rms=-19.84
sample=Cor_sustain_FF_C4.opus
</region>

<region>
hivel=127
key=C5
loop_end=271864
loop_mode=loop_continuous
loop_start=88374
loop_xfade=22234
lovel=0
lpc=mekcQjyP3cIKIgJDGNqQwl8h48DrnxdCPp7UwATZtcHfrXFBKDBcQbMeAsLbP8tBvhnGwMIgKcGDAWhBVmo5wOsb7MA0zAZBj5sNvwcan8BLV+e/4BgkQaGnNsG2wLVA
lpc_rms=-20.63
sample=Cor_sustain_FF_C5.opus
</region>

<region>
hivel=127
key=D#4
loop_end=265623
loop_mode=loop_continuous
loop_start=86345
loop_xfade=21723
lovel=0
lpc=8ITTQVfLhMKHtHtCKZrNwSohMMCABjJBoRqWwPRw9r/yn5pAOK1DwClut7+dO5E/iYB3QDpQjMCu3Ti+mhPxP+a3Gr8GE2i/WCTZPZfFbj//agu9aPcav2mFCUCjVua/
lpc_rms=-22.19
sample=Cor_sustain_FF_D#4.opus
</region>

<region>
hivel=127
key=D#5
loop_end=268506
loop_mode=loop_continuous
loop_start=87282
loop_xfade=21959
lovel=0
lpc=keIMQvsAusLlBdJCWQZfwsFcBsF45wZC5I83wdyQTsHl1ppBepzmwG2XEMFWAjhBp315wHHjusAGVj5Bb27dwGwgvb/eJvNAy1M0wCTqyL/XspDAjLw3QQmjTsFuCPZA
lpc_rms=-21.79
sample=Cor_sustain_FF_D#5.opus
</region>

<region>
hivel=127
key=D4
loop_end=270649
loop_mode=loop_continuous
loop_start=87979
loop_xfade=22134
lovel=0
lpc=ndPzQZSPpMIfoqJC6g3ywRXF18Bc/X5BZhROwUxmz0Dsr0U/zpIwwHQpkb5vVL6+73l2QEZ4WcDHvmO+1NeIQPw1q8CM7Bc/wZRdQHPbKMD9QIg9vUSWvaq8IEAHLea/
lpc_rms=-18.61
sample=Cor_sustain_FF_D4.opus
</region>

<region>
hivel=127
key=D5
loop_end=263625
loop_mode=loop_continuous
loop_start=85695
loop_xfade=21560
lovel=0
lpc=bPlYQrN7EcNH7xtDemSOwpkCxcE1P3ZCN1PbwUbXC8GoSVtBjGxzP8BNpcGSUbtBJtvMwCw2gMEklqhBn1BeQAfNpcE6kf9Aa7BcQZ1JW8Gq4te/4bBGQd8cgcGOpBlB
lpc_rms=-18.14
sample=Cor_sustain_FF_D5.opus
</region>

<region>
hivel=127
key=E3
loop_end=271396
loop_mode=loop_continuous
loop_start=88222
loop_xfade=22195
lovel=0
lpc=SzFAQmx6DcP1ICRDIqy6wpmX10HWoiLBDI6QQdd3wcHVu4lBLoCfQMR2ucHZNNVBuYrFwQZ4gkH5E6y/nVewwG7U50CQpBzBGn6IQAF8+EA46xjBkPLZP3Wjdb5rjdQ/
lpc_rms=-18.98
sample=Cor_sustain_FF_E3.opus
</region>

<region>
hivel=127
key=E4
loop_end=261613
loop_mode=loop_continuous
loop_start=85042
loop_xfade=21395
lovel=0
lpc=KhbEQcm9hMJC0YVCHqXuwZjkBkDLwSNB+xcuwa5X20A4QZPA7tIIvx4aZkDDW9u/gE1JvxhDM0DyAhDA46qKQAb+/cDbUqBANpvSvqgKuT7moyPAhZwXQDo+/z3ZnhS/
lpc_rms=-21.47
sample=Cor_sustain_FF_E4.opus
</region>

<region>
hivel=127
key=E5
loop_end=257265
loop_mode=loop_continuous
loop_start=83628
loop_xfade=21040
lovel=0
lpc=6XopQls0yMKwM8dCvkgwwuW0H8EvuN9BpasPwfh8dsHNGONBGHxrwfoH6sBWGl9BXcjEwP4jYsAGilNAEaHTQLF3O8DCMpPAkUGOQDPyvkCXNE3BBhJPQfVhY8FbrSxB
lpc_rms=-19.76
sample=Cor_sustain_FF_E5.opus
</region>

<region>
hivel=127
key=F#3
loop_end=273977
loop_mode=loop_continuous
loop_start=89061
loop_xfade=22406
lovel=0
lpc=dy0cQtI2y8Ie0eRCiRS3wiiaTUKeYhrBOhEyvt62rUC7tWzAcoEvwM/rlb/ERLfAVPofQVn5IsF/kktBac8jwAYQd8Dh661Aq6LFwJFlP770iiBA9b2dwDX4BkFgvnfA
lpc_rms=-21.82
sample=Cor_sustain_FF_F#3.opus
</region>

<region>
hivel=127
key=F#4
loop_end=265545
loop_mode=loop_continuous
loop_start=86320
loop_xfade=21717
lovel=0
lpc=CNfhQdpHm8KjJq9Cm5BWwkbuREGy66JAu/pTQfIk/cH0J9RBaycOwS4DS8Blure+91/JQNSO3sBnMa9Aav3KPxqKhsBK/x6/jf/KPsN+G0B2G4jAKkmKQPaejr88cFG+
lpc_rms=-21.81
sample=Cor_sustain_FF_F#4.opus
</region>

<region>
hivel=127
key=F#5
loop_end=257793
loop_mode=loop_continuous
loop_start=83800
loop_xfade=21083
lovel=0
lpc=Nu5QQgdA0MK67tpCvtV/wifAO0HmyRdBFx8rP7ONFL8/fXJA7DFWQDsWN7+Gs1XA4gFJQK21E8H/g79Bhl+Kwc28KkHniMxAIvdlwAPnPsEkpnFBMtKyv6urBMHA5WZB
lpc_rms=-17.54
sample=Cor_sustain_FF_F#5.opus
</region>

<region>
hivel=127
key=F3
loop_end=263305
loop_mode=loop_continuous
loop_start=85591
loop_xfade=21534
lovel=0
lpc=Mc45QsJ9A8NRzhtDNT7hwgBgU0KN2o3AuwQrwXx310BU1tNAD65pwWuWkUD2tT5AuUTWwNC940B8TS1AqXLpwAjp6UDqCdrAOhGQP8X6vUA/9kzBAu8ZQay7ZTvKGcC/
lpc_rms=-19.55
sample=Cor_sustain_FF_F3.opus
</region>

<region>
hivel=127
key=F4
loop_end=269686
loop_mode=loop_continuous
loop_start=87666
loop_xfade=22055
lovel=0
lpc=xpGzQYDPfMLhpodC+2rawRDnB8F7qTBBQgyBP5vaisCrLgJAAnURv1ZvW8Dvw9RAZywowFrEqb9oxUq/++RVQJhgF8AmsB4/01oYwEExsEBYea7AZSqaQFQCgcDZncY/
lpc_rms=-21.13
sample=Cor_sustain_FF_F4.opus
</region>

<region>
hivel=127
key=F5
loop_end=266488
loop_mode=loop_continuous
loop_start=86626
loop_xfade=21794
lovel=0
lpc=W1wSQuO2ucKWUcVClAAbwq0/v8EFlSNCiQpUwQlCdsFJyJ1BczDFwLvmnL7QES3ASnLuQMulBsEA4xlBDAj4v1el/8B6FTdAFOSBQe8sjcF1z+y9NiaBQRQCicGpMhVB
lpc_rms=-20.26
sample=Cor_sustain_FF_F5.opus
</region>

<region>
hivel=127
key=G#3
loop_end=270382
loop_mode=loop_continuous
loop_start=87892
loop_xfade=22112
lovel=0
lpc=PGPuQVc9mcIoGJRCdoz5wSR0ssBGIY5BHwQiwX8lnkBUOS3ADUfaP3N/o8D8NndAM84RwHzIv0C2qIrAJnW3P1E1AMBals4/BNzvv8q5qTsbRKY/6K9fv9VnIkAzQ+S/
lpc_rms=-22.23
sample=Cor_sustain_FF_G#3.opus
</region>

<region>
hivel=127
key=G#4
loop_end=274415
loop_mode=loop_continuous
loop_start=89203
loop_xfade=22442
lovel=0
lpc=fqUmQnWczMLjarhCoCg3wkkLqkHERd7ASo4lQNwqFEAcPBjBzTLQQJI3rMB5BsFAznapvwT+F79gGylBKoF1wb1B2D6TaNlAOOh6wJu7mUD7oUHAIR5wv4SBezw/Go4/
lpc_rms=-19.65
sample=Cor_sustain_FF_G#4.opus
</region>

<region>
hivel=127
key=G3
loop_end=272594
loop_mode=loop_continuous
loop_start=88611
loop_xfade=22293
lovel=0
lpc=b9AoQud77MJksARDgNmhwgA+5kEXi+K/33enwIgiGkG5lwvBFNdEQHvajMAEFI9AstdPQGRMGcFbYDtBN9kNwSYbu0CSirHAH4UeQD6RhT8pq5PAjZzZQDPDecB5eXE/
lpc_rms=-18.19
sample=Cor_sustain_FF_G3.opus
</region>

<region>
hivel=127
key=G4
loop_end=272475
loop_mode=loop_continuous
loop_start=88572
loop_xfade=22284
lovel=0
lpc=wcMoQtQG6cLMSAlDX4DEwq1QOEL511HBcxexQIPrpMB+6IJAXwo+PeIdcsAREJhAnJ83wJWEpsCpaD1Br4SWwDuuYcBg225AkKzPv18mIz+CD1rA+jEiQWOib8G6v/1A
lpc_rms=-16.03
sample=Cor_sustain_FF_G4.opus
</region>

<region>
hikey=D6
hivel=127
lokey=G5
loop_end=253452
loop_mode=loop_continuous
loop_start=82389
loop_xfade=20728
lovel=0
lpc=Asb6QmxYkMMIdpJDPVbIwonVqsKCdvtCS+gNwaOKwMJL3cJCR3mswSfOsMELnfxB7NDWv/V3yMFiMx5CJRx8wS/vCcENKplBrgetQLdxmsDa3BXBxb/CQZ/wkcHKAZFB
lpc_rms=-13.34
pitch_keycenter=G5
sample=Cor_sustain_FF_G5.opus
</region>
</group>